/vscmnt/brussel_pixiu_data/_data_brussel/112/vsc11236/PredSimResults/SUBJ06opt3D/weighted-trackIG/worker_05.mot
version=1
nRows=11
nColumns=50
inDegrees=yes
endheader
                time	         pelvis_tilt	         pelvis_list	     pelvis_rotation	           pelvis_tx	           pelvis_ty	           pelvis_tz	       hip_flexion_r	     hip_adduction_r	      hip_rotation_r	        knee_angle_r	       ankle_angle_r	         mtp_angle_r	       hip_flexion_l	     hip_adduction_l	      hip_rotation_l	        knee_angle_l	       ankle_angle_l	         mtp_angle_l	    lumbar_extension	      lumbar_bending	     lumbar_rotation	 ercspn_r/activation	 intobl_r/activation	 extobl_r/activation	    abd_r/activation	    add_r/activation	hamstrings_r/activation	bifemsh_r/activation	glut_max_r/activation	iliopsoas_r/activation	rect_fem_r/activation	  vasti_r/activation	gastroc_r/activation	 soleus_r/activation	tib_ant_r/activation	 ercspn_l/activation	 intobl_l/activation	 extobl_l/activation	    abd_l/activation	    add_l/activation	hamstrings_l/activation	bifemsh_l/activation	glut_max_l/activation	iliopsoas_l/activation	rect_fem_l/activation	  vasti_l/activation	gastroc_l/activation	 soleus_l/activation	tib_ant_l/activation	
          0.00000000	         -5.56718379	         -0.96094190	          3.35918465	          0.00000000	          0.93509128	         -0.01221698	         30.57841466	         -0.66935448	         -4.79351929	         -7.26993827	         -0.16740106	          0.21616070	         -8.32976300	         -0.39546374	         -6.06993485	        -10.95258646	         10.53679503	         30.20838753	         -4.98953542	         -0.54273651	         -7.76970395	          0.19059836	          0.16667186	          0.00999999	          0.00999999	          0.26109468	          0.05659771	          0.07075671	          0.01521518	          0.13304180	          0.01767591	          0.00999999	          0.00999999	          0.00999999	          0.48866314	          0.11230469	          0.00999999	          0.00999999	          0.12177568	          0.00999999	          0.00999999	          0.28712420	          0.01324692	          0.59577301	          0.01273394	          0.00999999	          0.24788439	          0.41294457	          0.02634359	
          0.01296726	         -5.70016047	         -0.86865666	          3.32324890	          0.01563906	          0.93311677	         -0.01095280	         30.83458867	         -0.48598259	         -4.61638424	         -8.94599375	         -0.43205695	          0.21950365	         -8.72207621	         -0.45295979	         -6.56126556	        -11.75059366	          9.87692829	         31.96869219	         -4.63698525	         -0.21627751	         -8.32255851	          0.18414084	          0.13705203	          0.00999999	          0.00999999	          0.41334230	          0.06541355	          0.05818230	          0.04298440	          0.10939849	          0.01453466	          0.00999999	          0.00999999	          0.01798581	          0.48138448	          0.14214359	          0.00999999	          0.00999999	          0.10013450	          0.00999999	          0.00999999	          0.27417185	          0.01089277	          0.62011764	          0.01216120	          0.00999999	          0.23585326	          0.39785355	          0.02166198	
          0.02593453	         -5.80831297	         -0.82576317	          3.27629275	          0.03180865	          0.93136042	         -0.00967162	         30.91155002	         -0.33543772	         -4.26154231	        -10.66137450	         -0.64279101	          0.19600136	         -9.01753193	         -0.59016283	         -7.03390238	        -12.81469383	          9.08830051	         33.80899887	         -4.24788408	          0.18223635	         -8.83186576	          0.15268277	          0.11269604	          0.00999999	          0.00999999	          0.33988582	          0.07453934	          0.04784252	          0.03534549	          0.08995691	          0.01195166	          0.02871802	          0.01216120	          0.01478949	          0.51849169	          0.13538977	          0.00999999	          0.00999999	          0.08233926	          0.00999999	          0.00999999	          0.25908444	          0.00999999	          0.60396181	          0.00999999	          0.00999999	          0.20478687	          0.37799146	          0.01781235	
          0.03890179	         -5.89429145	         -0.82659009	          3.21126193	          0.04833426	          0.92989702	         -0.00827782	         30.79722441	         -0.16628978	         -4.01618914	        -12.07789391	         -1.02808978	          0.18622590	         -9.14820767	         -0.81345347	         -7.49873315	        -14.23677301	          8.13843064	         35.74048699	         -3.84480237	          0.63055806	         -9.28851279	          0.13617384	          0.09266844	          0.00999999	          0.00999999	          0.27948354	          0.07840061	          0.03934026	          0.04708387	          0.07397035	          0.00999999	          0.07111955	          0.00999999	          0.01216120	          0.56618720	          0.13820853	          0.00999999	          0.00999999	          0.06770646	          0.00999999	          0.01063951	          0.22785088	          0.00999999	          0.55262816	          0.00999999	          0.00999999	          0.16839349	          0.35163145	          0.01464686	
          0.05186905	         -5.95945331	         -0.86784373	          3.12619317	          0.06502898	          0.92881672	         -0.00675758	         30.53218741	          0.02448697	         -3.96843007	        -13.25684603	         -1.44672230	          0.15756010	         -9.06727751	         -1.12596544	         -7.97116514	        -16.06432878	          6.97243568	         37.76346306	         -3.45108081	          1.11984697	         -9.68693580	          0.13024527	          0.07620001	          0.00999999	          0.04786387	          0.24416982	          0.08051809	          0.03234897	          0.05945098	          0.06082483	          0.00999999	          0.13559545	          0.00999999	          0.00999999	          0.61509291	          0.16316139	          0.00999999	          0.00999999	          0.05567411	          0.00999999	          0.01487880	          0.20036498	          0.00999999	          0.47345184	          0.00999999	          0.00999999	          0.13846771	          0.32324462	          0.01204391	
          0.06483632	         -6.00538108	         -0.94716537	          3.02231934	          0.08170534	          0.92828049	         -0.00512876	         30.14624205	          0.23611387	         -4.07302769	        -14.30924617	         -1.50781750	          0.12507662	         -8.73980575	         -1.53040315	         -8.45842237	        -18.31172105	          5.50168510	         39.85162857	         -3.08436274	          1.64468747	        -10.02436522	          0.13229703	          0.06265824	          0.00999999	          0.10793043	          0.21151390	          0.08014639	          0.02660012	          0.06855162	          0.05001544	          0.00999999	          0.19112136	          0.00999999	          0.00999999	          0.61039753	          0.19524576	          0.00999999	          0.00999999	          0.04578008	          0.00999999	          0.04028932	          0.17599411	          0.00999999	          0.38931308	          0.00999999	          0.00999999	          0.11386013	          0.26579971	          0.00999999	
          0.07780358	         -6.03485441	         -1.05651811	          2.90569731	          0.09815898	          0.92846609	         -0.00341504	         29.65673334	          0.47944366	         -4.21515917	        -15.27973607	         -0.99028350	          0.17503299	         -8.13439352	         -2.02411929	         -8.95593659	        -20.98247679	          3.67272940	         41.85335318	         -2.75992480	          2.19247250	        -10.30357092	          0.12509052	          0.05152303	          0.00999999	          0.15985260	          0.18478043	          0.07538672	          0.02187292	          0.07182550	          0.04112702	          0.00999999	          0.25657370	          0.00999999	          0.00999999	          0.53332141	          0.23084687	          0.00999999	          0.00999999	          0.03764434	          0.06816322	          0.10923203	          0.15307825	          0.00999999	          0.32012692	          0.00999999	          0.00999999	          0.09362566	          0.21856353	          0.00999999	
          0.09077085	         -6.05155153	         -1.18265124	          2.78357778	          0.11420766	          0.92950172	         -0.00164730	         29.04091754	          0.76101150	         -4.28854926	        -16.08491133	          0.00453484	          0.40247143	         -7.23336955	         -2.59698282	         -9.45472281	        -24.05979468	          1.51318115	         43.43607795	         -2.48952492	          2.74458795	        -10.53024194	          0.11975323	          0.04236670	          0.00999999	          0.18711447	          0.17874735	          0.07404370	          0.01798581	          0.05906114	          0.03381820	          0.00999999	          0.27936499	          0.00999999	          0.00999999	          0.44348923	          0.24340342	          0.00999999	          0.00999999	          0.03095444	          0.18086115	          0.15814926	          0.15539940	          0.00999999	          0.26323606	          0.00999999	          0.00999999	          0.07698712	          0.17972185	          0.00999999	
          0.10373811	         -6.05815541	         -1.29050583	          2.65677359	          0.12975602	          0.93135633	          0.00013215	         28.26406124	          1.04621076	         -4.29106711	        -16.56895044	          1.01223733	          0.77962758	         -6.04255422	         -3.21470054	         -9.96379412	        -27.53310207	         -0.74051588	         43.95618872	         -2.27919799	          3.26162259	        -10.70354658	          0.12030303	          0.03483756	          0.00999999	          0.19472806	          0.17858212	          0.07607371	          0.01478949	          0.04856518	          0.02780825	          0.00999999	          0.27285839	          0.00999999	          0.00999999	          0.37273918	          0.24385436	          0.00999999	          0.00999999	          0.02545342	          0.22716963	          0.17057409	          0.12778284	          0.00999999	          0.21645547	          0.00999999	          0.00999999	          0.06330547	          0.14778286	          0.00999999	
          0.11670537	         -6.05504237	         -1.34998321	          2.52374597	          0.14480335	          0.93387869	          0.00188438	         27.32405675	          1.29634314	         -4.25175806	        -16.69569403	          1.83904187	          1.22224857	         -4.59687969	         -3.84814878	        -10.47421001	        -31.33116568	         -3.04017052	         43.24940712	         -2.12777974	          3.71223177	        -10.81853159	          0.11489034	          0.02864646	          0.00999999	          0.18938797	          0.14879153	          0.07782744	          0.01216120	          0.03993450	          0.02286635	          0.00999999	          0.25138564	          0.00999999	          0.00999999	          0.32567291	          0.23765389	          0.00999999	          0.00999999	          0.02093000	          0.23713678	          0.16713843	          0.11532405	          0.00999999	          0.17798843	          0.00999999	          0.00999999	          0.05205524	          0.12151986	          0.00999999	
          0.12967264	         -6.04137601	         -1.34311801	          2.38266727	          0.15937597	          0.93686716	          0.00358447	         26.25133759	          1.48590462	         -4.18293954	        -16.52487779	          2.48186339	          1.67185964	         -2.95374137	         -4.47229442	        -10.96590026	        -35.29381682	         -5.50752876	         41.54453008	         -2.03356685	          4.07820449	        -10.87078417	          0.10833309	          0.02355560	          0.00999999	          0.17708378	          0.12234928	          0.08075199	          0.00999999	          0.04925257	          0.01880269	          0.00999999	          0.22165415	          0.00999999	          0.00999999	          0.29424887	          0.23678945	          0.00999999	          0.00999999	          0.01721046	          0.24375496	          0.16985277	          0.13110616	          0.00999999	          0.14635749	          0.00999999	          0.00999999	          0.04280432	          0.09992415	          0.00999999	
